<svg xmlns="http://www.w3.org/2000/svg" version="1.1" xmlns:xlink="http://www.w3.org/1999/xlink" xmlns:svgjs="http://svgjs.dev/svgjs" width="1440" height="560" preserveAspectRatio="none" viewBox="0 0 1440 560"><g mask="url(&quot;#SvgjsMask1005&quot;)" fill="none"><rect width="1440" height="560" x="0" y="0" fill="rgba(14, 42, 71, 1)"></rect><path d="M7.77 255.13L60.54 255.13L60.54 307.9L7.77 307.9z" fill="#037b0b"></path><path d="M457.89 501.01a34.9 34.9 0 1 0-1.62-69.78z" stroke="#e73635"></path><path d="M766.55 77.13L791.52 77.13L791.52 102.1L766.55 102.1z" fill="#037b0b"></path><path d="M255.64 132.29L294.27 132.29L294.27 170.92L255.64 170.92z" fill="#037b0b"></path><path d="M279.73 416.04L323.21 416.04L323.21 452.92L279.73 452.92z" stroke="#d3b714"></path><path d="M1422.09 450.97L1446.05 450.97L1446.05 474.93L1422.09 474.93z" stroke="#d3b714"></path><path d="M875.54 374.96a20.9 20.9 0 1 0-40.88-8.69z" fill="#d3b714"></path><path d="M819.89 208.93L860.93 208.93L860.93 249.97L819.89 249.97z" fill="#037b0b"></path><path d="M175.42 361.56L213.63 361.56L213.63 385.53L175.42 385.53z" fill="#e73635"></path><path d="M1051.43 76.72 a28.61 28.61 0 1 0 57.22 0 a28.61 28.61 0 1 0 -57.22 0z" stroke="#d3b714"></path><path d="M608.21 56.48L649.76 56.48L649.76 98.03L608.21 98.03z" fill="#d3b714"></path><path d="M735 278.58L760.09 278.58L760.09 303.67L735 303.67z" stroke="#e73635"></path><path d="M798.13 93.52L834.45 93.52L834.45 129.84L798.13 129.84z" fill="#e73635"></path><path d="M739.73 112.85a15.65 15.65 0 1 0-29.93 9.16z" fill="#d3b714"></path><path d="M1021.7 412.69L1035.58 412.69L1035.58 426.57L1021.7 426.57z" stroke="#037b0b"></path><path d="M1208.19 547.68a35.07 35.07 0 1 0-55.14-43.36z" stroke="#d3b714"></path><path d="M168.33 127.64L216.66 127.64L216.66 175.97L168.33 175.97z" stroke="#037b0b"></path><path d="M180.95 416.36L186.35 416.36L186.35 421.76L180.95 421.76z" stroke="#e73635"></path><path d="M746.61 228.49L796.22 228.49L796.22 246.49L746.61 246.49z" stroke="#d3b714"></path><path d="M711.62 455.65L766.65 455.65L766.65 510.68L711.62 510.68z" stroke="#037b0b"></path><path d="M1113.52 528.52a45.87 45.87 0 1 0 88.18 25.32z" fill="#e73635"></path><path d="M1343.78 138.2 a45.12 45.12 0 1 0 90.24 0 a45.12 45.12 0 1 0 -90.24 0z" stroke="#e73635"></path><path d="M207.09 202.63a29.75 29.75 0 1 0-56.46 18.77z" stroke="#037b0b"></path><path d="M289.28 301.53 a55.52 55.52 0 1 0 111.04 0 a55.52 55.52 0 1 0 -111.04 0z" stroke="#037b0b"></path><path d="M303.39 299.56 a8.94 8.94 0 1 0 17.88 0 a8.94 8.94 0 1 0 -17.88 0z" stroke="#e73635"></path><path d="M1118.36 364.27L1128.67 364.27L1128.67 374.58L1118.36 374.58z" stroke="#037b0b"></path><path d="M1208.79 509.73a2 2 0 1 0 3.56-1.82z" fill="#e73635"></path><path d="M754.31 106.2a28.36 28.36 0 1 0 41.81-38.33z" stroke="#e73635"></path><path d="M305.5 32.97a21.08 21.08 0 1 0-17.01-38.57z" stroke="#d3b714"></path><path d="M429.4 191.86L473.02 191.86L473.02 223.11L429.4 223.11z" fill="#037b0b"></path><path d="M497.93 443.76a40.67 40.67 0 1 0-41.97-69.68z" fill="#e73635"></path><path d="M1162.34 293.65a21.14 21.14 0 1 0 25.48 33.74z" fill="#037b0b"></path><path d="M1398.16 460.27a10.64 10.64 0 1 0 6.6 20.23z" fill="#d3b714"></path></g><defs><mask id="SvgjsMask1005"><rect width="1440" height="560" fill="#ffffff"></rect></mask></defs></svg>