<svg xmlns="http://www.w3.org/2000/svg" version="1.1" xmlns:xlink="http://www.w3.org/1999/xlink" xmlns:svgjs="http://svgjs.dev/svgjs" width="2160" height="1080" preserveAspectRatio="none" viewBox="0 0 2160 1080"><g mask="url(&quot;#SvgjsMask1189&quot;)" fill="none"><rect width="2160" height="1080" x="0" y="0" fill="#0e2a47"></rect><path d="M16.34 -31.19L81.29 6.31L81.29 81.31L16.34 118.81L-48.61 81.31L-48.61 6.31zM81.29 81.31L146.25 118.81L146.25 193.81L81.29 231.31L16.34 193.81L16.34 118.81zM16.34 418.81L81.29 456.31L81.29 531.31L16.34 568.81L-48.61 531.31L-48.61 456.31zM81.29 981.31L146.25 1018.81L146.25 1093.81L81.29 1131.31L16.34 1093.81L16.34 1018.81zM146.25 193.81L211.2 231.31L211.2 306.31L146.25 343.81L81.29 306.31L81.29 231.31zM146.25 418.81L211.2 456.31L211.2 531.31L146.25 568.81L81.29 531.31L81.29 456.31zM146.25 643.81L211.2 681.31L211.2 756.31L146.25 793.81L81.29 756.31L81.29 681.31zM146.25 1093.81L211.2 1131.31L211.2 1206.31L146.25 1243.81L81.29 1206.31L81.29 1131.31zM276.15 -31.19L341.11 6.31L341.11 81.31L276.15 118.81L211.2 81.31L211.2 6.31zM276.15 418.81L341.11 456.31L341.11 531.31L276.15 568.81L211.2 531.31L211.2 456.31zM341.11 531.31L406.06 568.81L406.06 643.81L341.11 681.31L276.15 643.81L276.15 568.81zM276.15 868.81L341.11 906.31L341.11 981.31L276.15 1018.81L211.2 981.31L211.2 906.31zM341.11 981.31L406.06 1018.81L406.06 1093.81L341.11 1131.31L276.15 1093.81L276.15 1018.81zM471.02 306.31L535.97 343.81L535.97 418.81L471.02 456.31L406.06 418.81L406.06 343.81zM406.06 418.81L471.02 456.31L471.02 531.31L406.06 568.81L341.11 531.31L341.11 456.31zM471.02 531.31L535.97 568.81L535.97 643.81L471.02 681.31L406.06 643.81L406.06 568.81zM471.02 756.31L535.97 793.81L535.97 868.81L471.02 906.31L406.06 868.81L406.06 793.81zM406.06 868.81L471.02 906.31L471.02 981.31L406.06 1018.81L341.11 981.31L341.11 906.31zM471.02 981.31L535.97 1018.81L535.97 1093.81L471.02 1131.31L406.06 1093.81L406.06 1018.81zM406.06 1093.81L471.02 1131.31L471.02 1206.31L406.06 1243.81L341.11 1206.31L341.11 1131.31zM535.97 193.81L600.92 231.31L600.92 306.31L535.97 343.81L471.02 306.31L471.02 231.31zM600.92 306.31L665.88 343.81L665.88 418.81L600.92 456.31L535.97 418.81L535.97 343.81zM535.97 418.81L600.92 456.31L600.92 531.31L535.97 568.81L471.02 531.31L471.02 456.31zM535.97 868.81L600.92 906.31L600.92 981.31L535.97 1018.81L471.02 981.31L471.02 906.31zM665.88 418.81L730.83 456.31L730.83 531.31L665.88 568.81L600.92 531.31L600.92 456.31zM730.83 756.31L795.79 793.81L795.79 868.81L730.83 906.31L665.88 868.81L665.88 793.81zM665.88 868.81L730.83 906.31L730.83 981.31L665.88 1018.81L600.92 981.31L600.92 906.31zM795.78 193.81L860.74 231.31L860.74 306.31L795.78 343.81L730.83 306.31L730.83 231.31zM795.78 643.81L860.74 681.31L860.74 756.31L795.78 793.81L730.83 756.31L730.83 681.31zM860.74 756.31L925.69 793.81L925.69 868.81L860.74 906.31L795.78 868.81L795.78 793.81zM795.78 868.81L860.74 906.31L860.74 981.31L795.78 1018.81L730.83 981.31L730.83 906.31zM860.74 981.31L925.69 1018.81L925.69 1093.81L860.74 1131.31L795.78 1093.81L795.78 1018.81zM990.65 531.31L1055.6 568.81L1055.6 643.81L990.65 681.31L925.69 643.81L925.69 568.81zM1120.55 81.31L1185.51 118.81L1185.51 193.81L1120.55 231.31L1055.6 193.81L1055.6 118.81zM1120.55 306.31L1185.51 343.81L1185.51 418.81L1120.55 456.31L1055.6 418.81L1055.6 343.81zM1055.6 418.81L1120.55 456.31L1120.55 531.31L1055.6 568.81L990.65 531.31L990.65 456.31zM1120.55 756.31L1185.51 793.81L1185.51 868.81L1120.55 906.31L1055.6 868.81L1055.6 793.81zM1185.51 -31.19L1250.46 6.31L1250.46 81.31L1185.51 118.81L1120.55 81.31L1120.55 6.31zM1250.46 81.31L1315.41 118.81L1315.41 193.81L1250.46 231.31L1185.51 193.81L1185.51 118.81zM1185.51 193.81L1250.46 231.31L1250.46 306.31L1185.51 343.81L1120.55 306.31L1120.55 231.31zM1250.46 306.31L1315.41 343.81L1315.41 418.81L1250.46 456.31L1185.51 418.81L1185.51 343.81zM1185.51 418.81L1250.46 456.31L1250.46 531.31L1185.51 568.81L1120.55 531.31L1120.55 456.31zM1185.51 643.81L1250.46 681.31L1250.46 756.31L1185.51 793.81L1120.55 756.31L1120.55 681.31zM1250.46 981.31L1315.41 1018.81L1315.41 1093.81L1250.46 1131.31L1185.51 1093.81L1185.51 1018.81zM1185.51 1093.81L1250.46 1131.31L1250.46 1206.31L1185.51 1243.81L1120.55 1206.31L1120.55 1131.31zM1315.41 -31.19L1380.37 6.31L1380.37 81.31L1315.41 118.81L1250.46 81.31L1250.46 6.31zM1380.37 81.31L1445.32 118.81L1445.32 193.81L1380.37 231.31L1315.41 193.81L1315.41 118.81zM1380.37 306.31L1445.32 343.81L1445.32 418.81L1380.37 456.31L1315.41 418.81L1315.41 343.81zM1380.37 756.31L1445.32 793.81L1445.32 868.81L1380.37 906.31L1315.41 868.81L1315.41 793.81zM1315.41 868.81L1380.37 906.31L1380.37 981.31L1315.41 1018.81L1250.46 981.31L1250.46 906.31zM1445.32 418.81L1510.28 456.31L1510.28 531.31L1445.32 568.81L1380.37 531.31L1380.37 456.31zM1510.28 756.31L1575.23 793.81L1575.23 868.81L1510.28 906.31L1445.32 868.81L1445.32 793.81zM1445.32 868.81L1510.28 906.31L1510.28 981.31L1445.32 1018.81L1380.37 981.31L1380.37 906.31zM1575.23 -31.19L1640.18 6.31L1640.18 81.31L1575.23 118.81L1510.28 81.31L1510.28 6.31zM1575.23 193.81L1640.18 231.31L1640.18 306.31L1575.23 343.81L1510.28 306.31L1510.28 231.31zM1640.18 756.31L1705.14 793.81L1705.14 868.81L1640.18 906.31L1575.23 868.81L1575.23 793.81zM1705.14 -31.19L1770.09 6.31L1770.09 81.31L1705.14 118.81L1640.18 81.31L1640.18 6.31zM1770.09 306.31L1835.04 343.81L1835.04 418.81L1770.09 456.31L1705.14 418.81L1705.14 343.81zM1770.09 981.31L1835.04 1018.81L1835.04 1093.81L1770.09 1131.31L1705.14 1093.81L1705.14 1018.81zM1900 306.31L1964.95 343.81L1964.95 418.81L1900 456.31L1835.04 418.81L1835.04 343.81zM1900 756.31L1964.95 793.81L1964.95 868.81L1900 906.31L1835.04 868.81L1835.04 793.81zM1835.04 868.81L1900 906.31L1900 981.31L1835.04 1018.81L1770.09 981.31L1770.09 906.31zM1835.04 1093.81L1900 1131.31L1900 1206.31L1835.04 1243.81L1770.09 1206.31L1770.09 1131.31zM2029.91 81.31L2094.86 118.81L2094.86 193.81L2029.91 231.31L1964.95 193.81L1964.95 118.81zM1964.95 193.81L2029.91 231.31L2029.91 306.31L1964.95 343.81L1900 306.31L1900 231.31zM1964.95 418.81L2029.91 456.31L2029.91 531.31L1964.95 568.81L1900 531.31L1900 456.31zM2029.91 531.31L2094.86 568.81L2094.86 643.81L2029.91 681.31L1964.95 643.81L1964.95 568.81zM1964.95 643.81L2029.91 681.31L2029.91 756.31L1964.95 793.81L1900 756.31L1900 681.31zM1964.95 868.81L2029.91 906.31L2029.91 981.31L1964.95 1018.81L1900 981.31L1900 906.31zM1964.95 1093.81L2029.91 1131.31L2029.91 1206.31L1964.95 1243.81L1900 1206.31L1900 1131.31zM2159.81 81.31L2224.77 118.81L2224.77 193.81L2159.81 231.31L2094.86 193.81L2094.86 118.81zM2094.86 193.81L2159.81 231.31L2159.81 306.31L2094.86 343.81L2029.91 306.31L2029.91 231.31zM2094.86 418.81L2159.81 456.31L2159.81 531.31L2094.86 568.81L2029.91 531.31L2029.91 456.31zM2094.86 643.81L2159.81 681.31L2159.81 756.31L2094.86 793.81L2029.91 756.31L2029.91 681.31zM2159.81 756.31L2224.77 793.81L2224.77 868.81L2159.81 906.31L2094.86 868.81L2094.86 793.81zM2094.86 868.81L2159.81 906.31L2159.81 981.31L2094.86 1018.81L2029.91 981.31L2029.91 906.31zM2094.86 1093.81L2159.81 1131.31L2159.81 1206.31L2094.86 1243.81L2029.91 1206.31L2029.91 1131.31z" stroke="#03305d" stroke-width="2"></path><path d="M8.84 -31.19 a7.5 7.5 0 1 0 15 0 a7.5 7.5 0 1 0 -15 0zM73.79 6.31 a7.5 7.5 0 1 0 15 0 a7.5 7.5 0 1 0 -15 0zM73.79 81.31 a7.5 7.5 0 1 0 15 0 a7.5 7.5 0 1 0 -15 0zM8.84 118.81 a7.5 7.5 0 1 0 15 0 a7.5 7.5 0 1 0 -15 0zM-56.11 81.31 a7.5 7.5 0 1 0 15 0 a7.5 7.5 0 1 0 -15 0zM-56.11 6.31 a7.5 7.5 0 1 0 15 0 a7.5 7.5 0 1 0 -15 0zM138.75 118.81 a7.5 7.5 0 1 0 15 0 a7.5 7.5 0 1 0 -15 0zM138.75 193.81 a7.5 7.5 0 1 0 15 0 a7.5 7.5 0 1 0 -15 0zM73.79 231.31 a7.5 7.5 0 1 0 15 0 a7.5 7.5 0 1 0 -15 0zM8.84 193.81 a7.5 7.5 0 1 0 15 0 a7.5 7.5 0 1 0 -15 0zM8.84 418.81 a7.5 7.5 0 1 0 15 0 a7.5 7.5 0 1 0 -15 0zM73.79 456.31 a7.5 7.5 0 1 0 15 0 a7.5 7.5 0 1 0 -15 0zM73.79 531.31 a7.5 7.5 0 1 0 15 0 a7.5 7.5 0 1 0 -15 0zM8.84 568.81 a7.5 7.5 0 1 0 15 0 a7.5 7.5 0 1 0 -15 0zM-56.11 531.31 a7.5 7.5 0 1 0 15 0 a7.5 7.5 0 1 0 -15 0zM-56.11 456.31 a7.5 7.5 0 1 0 15 0 a7.5 7.5 0 1 0 -15 0zM73.79 981.31 a7.5 7.5 0 1 0 15 0 a7.5 7.5 0 1 0 -15 0zM138.75 1018.81 a7.5 7.5 0 1 0 15 0 a7.5 7.5 0 1 0 -15 0zM138.75 1093.81 a7.5 7.5 0 1 0 15 0 a7.5 7.5 0 1 0 -15 0zM73.79 1131.31 a7.5 7.5 0 1 0 15 0 a7.5 7.5 0 1 0 -15 0zM8.84 1093.81 a7.5 7.5 0 1 0 15 0 a7.5 7.5 0 1 0 -15 0zM8.84 1018.81 a7.5 7.5 0 1 0 15 0 a7.5 7.5 0 1 0 -15 0zM203.7 231.31 a7.5 7.5 0 1 0 15 0 a7.5 7.5 0 1 0 -15 0zM203.7 306.31 a7.5 7.5 0 1 0 15 0 a7.5 7.5 0 1 0 -15 0zM138.75 343.81 a7.5 7.5 0 1 0 15 0 a7.5 7.5 0 1 0 -15 0zM73.79 306.31 a7.5 7.5 0 1 0 15 0 a7.5 7.5 0 1 0 -15 0zM138.75 418.81 a7.5 7.5 0 1 0 15 0 a7.5 7.5 0 1 0 -15 0zM203.7 456.31 a7.5 7.5 0 1 0 15 0 a7.5 7.5 0 1 0 -15 0zM203.7 531.31 a7.5 7.5 0 1 0 15 0 a7.5 7.5 0 1 0 -15 0zM138.75 568.81 a7.5 7.5 0 1 0 15 0 a7.5 7.5 0 1 0 -15 0zM138.75 643.81 a7.5 7.5 0 1 0 15 0 a7.5 7.5 0 1 0 -15 0zM203.7 681.31 a7.5 7.5 0 1 0 15 0 a7.5 7.5 0 1 0 -15 0zM203.7 756.31 a7.5 7.5 0 1 0 15 0 a7.5 7.5 0 1 0 -15 0zM138.75 793.81 a7.5 7.5 0 1 0 15 0 a7.5 7.5 0 1 0 -15 0zM73.79 756.31 a7.5 7.5 0 1 0 15 0 a7.5 7.5 0 1 0 -15 0zM73.79 681.31 a7.5 7.5 0 1 0 15 0 a7.5 7.5 0 1 0 -15 0zM203.7 1131.31 a7.5 7.5 0 1 0 15 0 a7.5 7.5 0 1 0 -15 0zM203.7 1206.31 a7.5 7.5 0 1 0 15 0 a7.5 7.5 0 1 0 -15 0zM138.75 1243.81 a7.5 7.5 0 1 0 15 0 a7.5 7.5 0 1 0 -15 0zM73.79 1206.31 a7.5 7.5 0 1 0 15 0 a7.5 7.5 0 1 0 -15 0zM268.65 -31.19 a7.5 7.5 0 1 0 15 0 a7.5 7.5 0 1 0 -15 0zM333.61 6.31 a7.5 7.5 0 1 0 15 0 a7.5 7.5 0 1 0 -15 0zM333.61 81.31 a7.5 7.5 0 1 0 15 0 a7.5 7.5 0 1 0 -15 0zM268.65 118.81 a7.5 7.5 0 1 0 15 0 a7.5 7.5 0 1 0 -15 0zM203.7 81.31 a7.5 7.5 0 1 0 15 0 a7.5 7.5 0 1 0 -15 0zM203.7 6.31 a7.5 7.5 0 1 0 15 0 a7.5 7.5 0 1 0 -15 0zM268.65 418.81 a7.5 7.5 0 1 0 15 0 a7.5 7.5 0 1 0 -15 0zM333.61 456.31 a7.5 7.5 0 1 0 15 0 a7.5 7.5 0 1 0 -15 0zM333.61 531.31 a7.5 7.5 0 1 0 15 0 a7.5 7.5 0 1 0 -15 0zM268.65 568.81 a7.5 7.5 0 1 0 15 0 a7.5 7.5 0 1 0 -15 0zM398.56 568.81 a7.5 7.5 0 1 0 15 0 a7.5 7.5 0 1 0 -15 0zM398.56 643.81 a7.5 7.5 0 1 0 15 0 a7.5 7.5 0 1 0 -15 0zM333.61 681.31 a7.5 7.5 0 1 0 15 0 a7.5 7.5 0 1 0 -15 0zM268.65 643.81 a7.5 7.5 0 1 0 15 0 a7.5 7.5 0 1 0 -15 0zM268.65 868.81 a7.5 7.5 0 1 0 15 0 a7.5 7.5 0 1 0 -15 0zM333.61 906.31 a7.5 7.5 0 1 0 15 0 a7.5 7.5 0 1 0 -15 0zM333.61 981.31 a7.5 7.5 0 1 0 15 0 a7.5 7.5 0 1 0 -15 0zM268.65 1018.81 a7.5 7.5 0 1 0 15 0 a7.5 7.5 0 1 0 -15 0zM203.7 981.31 a7.5 7.5 0 1 0 15 0 a7.5 7.5 0 1 0 -15 0zM203.7 906.31 a7.5 7.5 0 1 0 15 0 a7.5 7.5 0 1 0 -15 0zM398.56 1018.81 a7.5 7.5 0 1 0 15 0 a7.5 7.5 0 1 0 -15 0zM398.56 1093.81 a7.5 7.5 0 1 0 15 0 a7.5 7.5 0 1 0 -15 0zM333.61 1131.31 a7.5 7.5 0 1 0 15 0 a7.5 7.5 0 1 0 -15 0zM268.65 1093.81 a7.5 7.5 0 1 0 15 0 a7.5 7.5 0 1 0 -15 0zM463.52 306.31 a7.5 7.5 0 1 0 15 0 a7.5 7.5 0 1 0 -15 0zM528.47 343.81 a7.5 7.5 0 1 0 15 0 a7.5 7.5 0 1 0 -15 0zM528.47 418.81 a7.5 7.5 0 1 0 15 0 a7.5 7.5 0 1 0 -15 0zM463.52 456.31 a7.5 7.5 0 1 0 15 0 a7.5 7.5 0 1 0 -15 0zM398.56 418.81 a7.5 7.5 0 1 0 15 0 a7.5 7.5 0 1 0 -15 0zM398.56 343.81 a7.5 7.5 0 1 0 15 0 a7.5 7.5 0 1 0 -15 0zM463.52 531.31 a7.5 7.5 0 1 0 15 0 a7.5 7.5 0 1 0 -15 0zM528.47 568.81 a7.5 7.5 0 1 0 15 0 a7.5 7.5 0 1 0 -15 0zM528.47 643.81 a7.5 7.5 0 1 0 15 0 a7.5 7.5 0 1 0 -15 0zM463.52 681.31 a7.5 7.5 0 1 0 15 0 a7.5 7.5 0 1 0 -15 0zM463.52 756.31 a7.5 7.5 0 1 0 15 0 a7.5 7.5 0 1 0 -15 0zM528.47 793.81 a7.5 7.5 0 1 0 15 0 a7.5 7.5 0 1 0 -15 0zM528.47 868.81 a7.5 7.5 0 1 0 15 0 a7.5 7.5 0 1 0 -15 0zM463.52 906.31 a7.5 7.5 0 1 0 15 0 a7.5 7.5 0 1 0 -15 0zM398.56 868.81 a7.5 7.5 0 1 0 15 0 a7.5 7.5 0 1 0 -15 0zM398.56 793.81 a7.5 7.5 0 1 0 15 0 a7.5 7.5 0 1 0 -15 0zM463.52 981.31 a7.5 7.5 0 1 0 15 0 a7.5 7.5 0 1 0 -15 0zM528.47 1018.81 a7.5 7.5 0 1 0 15 0 a7.5 7.5 0 1 0 -15 0zM528.47 1093.81 a7.5 7.5 0 1 0 15 0 a7.5 7.5 0 1 0 -15 0zM463.52 1131.31 a7.5 7.5 0 1 0 15 0 a7.5 7.5 0 1 0 -15 0zM463.52 1206.31 a7.5 7.5 0 1 0 15 0 a7.5 7.5 0 1 0 -15 0zM398.56 1243.81 a7.5 7.5 0 1 0 15 0 a7.5 7.5 0 1 0 -15 0zM333.61 1206.31 a7.5 7.5 0 1 0 15 0 a7.5 7.5 0 1 0 -15 0zM528.47 193.81 a7.5 7.5 0 1 0 15 0 a7.5 7.5 0 1 0 -15 0zM593.42 231.31 a7.5 7.5 0 1 0 15 0 a7.5 7.5 0 1 0 -15 0zM593.42 306.31 a7.5 7.5 0 1 0 15 0 a7.5 7.5 0 1 0 -15 0zM463.52 231.31 a7.5 7.5 0 1 0 15 0 a7.5 7.5 0 1 0 -15 0zM658.38 343.81 a7.5 7.5 0 1 0 15 0 a7.5 7.5 0 1 0 -15 0zM658.38 418.81 a7.5 7.5 0 1 0 15 0 a7.5 7.5 0 1 0 -15 0zM593.42 456.31 a7.5 7.5 0 1 0 15 0 a7.5 7.5 0 1 0 -15 0zM593.42 531.31 a7.5 7.5 0 1 0 15 0 a7.5 7.5 0 1 0 -15 0zM593.42 906.31 a7.5 7.5 0 1 0 15 0 a7.5 7.5 0 1 0 -15 0zM593.42 981.31 a7.5 7.5 0 1 0 15 0 a7.5 7.5 0 1 0 -15 0zM723.33 456.31 a7.5 7.5 0 1 0 15 0 a7.5 7.5 0 1 0 -15 0zM723.33 531.31 a7.5 7.5 0 1 0 15 0 a7.5 7.5 0 1 0 -15 0zM658.38 568.81 a7.5 7.5 0 1 0 15 0 a7.5 7.5 0 1 0 -15 0zM723.33 756.31 a7.5 7.5 0 1 0 15 0 a7.5 7.5 0 1 0 -15 0zM788.29 793.81 a7.5 7.5 0 1 0 15 0 a7.5 7.5 0 1 0 -15 0zM788.29 868.81 a7.5 7.5 0 1 0 15 0 a7.5 7.5 0 1 0 -15 0zM723.33 906.31 a7.5 7.5 0 1 0 15 0 a7.5 7.5 0 1 0 -15 0zM658.38 868.81 a7.5 7.5 0 1 0 15 0 a7.5 7.5 0 1 0 -15 0zM658.38 793.81 a7.5 7.5 0 1 0 15 0 a7.5 7.5 0 1 0 -15 0zM723.33 981.31 a7.5 7.5 0 1 0 15 0 a7.5 7.5 0 1 0 -15 0zM658.38 1018.81 a7.5 7.5 0 1 0 15 0 a7.5 7.5 0 1 0 -15 0zM788.28 193.81 a7.5 7.5 0 1 0 15 0 a7.5 7.5 0 1 0 -15 0zM853.24 231.31 a7.5 7.5 0 1 0 15 0 a7.5 7.5 0 1 0 -15 0zM853.24 306.31 a7.5 7.5 0 1 0 15 0 a7.5 7.5 0 1 0 -15 0zM788.28 343.81 a7.5 7.5 0 1 0 15 0 a7.5 7.5 0 1 0 -15 0zM723.33 306.31 a7.5 7.5 0 1 0 15 0 a7.5 7.5 0 1 0 -15 0zM723.33 231.31 a7.5 7.5 0 1 0 15 0 a7.5 7.5 0 1 0 -15 0zM788.28 643.81 a7.5 7.5 0 1 0 15 0 a7.5 7.5 0 1 0 -15 0zM853.24 681.31 a7.5 7.5 0 1 0 15 0 a7.5 7.5 0 1 0 -15 0zM853.24 756.31 a7.5 7.5 0 1 0 15 0 a7.5 7.5 0 1 0 -15 0zM788.28 793.81 a7.5 7.5 0 1 0 15 0 a7.5 7.5 0 1 0 -15 0zM723.33 681.31 a7.5 7.5 0 1 0 15 0 a7.5 7.5 0 1 0 -15 0zM918.19 793.81 a7.5 7.5 0 1 0 15 0 a7.5 7.5 0 1 0 -15 0zM918.19 868.81 a7.5 7.5 0 1 0 15 0 a7.5 7.5 0 1 0 -15 0zM853.24 906.31 a7.5 7.5 0 1 0 15 0 a7.5 7.5 0 1 0 -15 0zM788.28 868.81 a7.5 7.5 0 1 0 15 0 a7.5 7.5 0 1 0 -15 0zM853.24 981.31 a7.5 7.5 0 1 0 15 0 a7.5 7.5 0 1 0 -15 0zM788.28 1018.81 a7.5 7.5 0 1 0 15 0 a7.5 7.5 0 1 0 -15 0zM918.19 1018.81 a7.5 7.5 0 1 0 15 0 a7.5 7.5 0 1 0 -15 0zM918.19 1093.81 a7.5 7.5 0 1 0 15 0 a7.5 7.5 0 1 0 -15 0zM853.24 1131.31 a7.5 7.5 0 1 0 15 0 a7.5 7.5 0 1 0 -15 0zM788.28 1093.81 a7.5 7.5 0 1 0 15 0 a7.5 7.5 0 1 0 -15 0zM983.15 531.31 a7.5 7.5 0 1 0 15 0 a7.5 7.5 0 1 0 -15 0zM1048.1 568.81 a7.5 7.5 0 1 0 15 0 a7.5 7.5 0 1 0 -15 0zM1048.1 643.81 a7.5 7.5 0 1 0 15 0 a7.5 7.5 0 1 0 -15 0zM983.15 681.31 a7.5 7.5 0 1 0 15 0 a7.5 7.5 0 1 0 -15 0zM918.19 643.81 a7.5 7.5 0 1 0 15 0 a7.5 7.5 0 1 0 -15 0zM918.19 568.81 a7.5 7.5 0 1 0 15 0 a7.5 7.5 0 1 0 -15 0zM1113.05 81.31 a7.5 7.5 0 1 0 15 0 a7.5 7.5 0 1 0 -15 0zM1178.01 118.81 a7.5 7.5 0 1 0 15 0 a7.5 7.5 0 1 0 -15 0zM1178.01 193.81 a7.5 7.5 0 1 0 15 0 a7.5 7.5 0 1 0 -15 0zM1113.05 231.31 a7.5 7.5 0 1 0 15 0 a7.5 7.5 0 1 0 -15 0zM1048.1 193.81 a7.5 7.5 0 1 0 15 0 a7.5 7.5 0 1 0 -15 0zM1048.1 118.81 a7.5 7.5 0 1 0 15 0 a7.5 7.5 0 1 0 -15 0zM1113.05 306.31 a7.5 7.5 0 1 0 15 0 a7.5 7.5 0 1 0 -15 0zM1178.01 343.81 a7.5 7.5 0 1 0 15 0 a7.5 7.5 0 1 0 -15 0zM1178.01 418.81 a7.5 7.5 0 1 0 15 0 a7.5 7.5 0 1 0 -15 0zM1113.05 456.31 a7.5 7.5 0 1 0 15 0 a7.5 7.5 0 1 0 -15 0zM1048.1 418.81 a7.5 7.5 0 1 0 15 0 a7.5 7.5 0 1 0 -15 0zM1048.1 343.81 a7.5 7.5 0 1 0 15 0 a7.5 7.5 0 1 0 -15 0zM1113.05 531.31 a7.5 7.5 0 1 0 15 0 a7.5 7.5 0 1 0 -15 0zM983.15 456.31 a7.5 7.5 0 1 0 15 0 a7.5 7.5 0 1 0 -15 0zM1113.05 756.31 a7.5 7.5 0 1 0 15 0 a7.5 7.5 0 1 0 -15 0zM1178.01 793.81 a7.5 7.5 0 1 0 15 0 a7.5 7.5 0 1 0 -15 0zM1178.01 868.81 a7.5 7.5 0 1 0 15 0 a7.5 7.5 0 1 0 -15 0zM1113.05 906.31 a7.5 7.5 0 1 0 15 0 a7.5 7.5 0 1 0 -15 0zM1048.1 868.81 a7.5 7.5 0 1 0 15 0 a7.5 7.5 0 1 0 -15 0zM1048.1 793.81 a7.5 7.5 0 1 0 15 0 a7.5 7.5 0 1 0 -15 0zM1178.01 -31.19 a7.5 7.5 0 1 0 15 0 a7.5 7.5 0 1 0 -15 0zM1242.96 6.31 a7.5 7.5 0 1 0 15 0 a7.5 7.5 0 1 0 -15 0zM1242.96 81.31 a7.5 7.5 0 1 0 15 0 a7.5 7.5 0 1 0 -15 0zM1113.05 6.31 a7.5 7.5 0 1 0 15 0 a7.5 7.5 0 1 0 -15 0zM1307.91 118.81 a7.5 7.5 0 1 0 15 0 a7.5 7.5 0 1 0 -15 0zM1307.91 193.81 a7.5 7.5 0 1 0 15 0 a7.5 7.5 0 1 0 -15 0zM1242.96 231.31 a7.5 7.5 0 1 0 15 0 a7.5 7.5 0 1 0 -15 0zM1242.96 306.31 a7.5 7.5 0 1 0 15 0 a7.5 7.5 0 1 0 -15 0zM1307.91 343.81 a7.5 7.5 0 1 0 15 0 a7.5 7.5 0 1 0 -15 0zM1307.91 418.81 a7.5 7.5 0 1 0 15 0 a7.5 7.5 0 1 0 -15 0zM1242.96 456.31 a7.5 7.5 0 1 0 15 0 a7.5 7.5 0 1 0 -15 0zM1242.96 531.31 a7.5 7.5 0 1 0 15 0 a7.5 7.5 0 1 0 -15 0zM1178.01 568.81 a7.5 7.5 0 1 0 15 0 a7.5 7.5 0 1 0 -15 0zM1178.01 643.81 a7.5 7.5 0 1 0 15 0 a7.5 7.5 0 1 0 -15 0zM1242.96 681.31 a7.5 7.5 0 1 0 15 0 a7.5 7.5 0 1 0 -15 0zM1242.96 756.31 a7.5 7.5 0 1 0 15 0 a7.5 7.5 0 1 0 -15 0zM1113.05 681.31 a7.5 7.5 0 1 0 15 0 a7.5 7.5 0 1 0 -15 0zM1242.96 981.31 a7.5 7.5 0 1 0 15 0 a7.5 7.5 0 1 0 -15 0zM1307.91 1018.81 a7.5 7.5 0 1 0 15 0 a7.5 7.5 0 1 0 -15 0zM1307.91 1093.81 a7.5 7.5 0 1 0 15 0 a7.5 7.5 0 1 0 -15 0zM1242.96 1131.31 a7.5 7.5 0 1 0 15 0 a7.5 7.5 0 1 0 -15 0zM1178.01 1093.81 a7.5 7.5 0 1 0 15 0 a7.5 7.5 0 1 0 -15 0zM1178.01 1018.81 a7.5 7.5 0 1 0 15 0 a7.5 7.5 0 1 0 -15 0zM1242.96 1206.31 a7.5 7.5 0 1 0 15 0 a7.5 7.5 0 1 0 -15 0zM1178.01 1243.81 a7.5 7.5 0 1 0 15 0 a7.5 7.5 0 1 0 -15 0zM1113.05 1206.31 a7.5 7.5 0 1 0 15 0 a7.5 7.5 0 1 0 -15 0zM1113.05 1131.31 a7.5 7.5 0 1 0 15 0 a7.5 7.5 0 1 0 -15 0zM1307.91 -31.19 a7.5 7.5 0 1 0 15 0 a7.5 7.5 0 1 0 -15 0zM1372.87 6.31 a7.5 7.5 0 1 0 15 0 a7.5 7.5 0 1 0 -15 0zM1372.87 81.31 a7.5 7.5 0 1 0 15 0 a7.5 7.5 0 1 0 -15 0zM1437.82 118.81 a7.5 7.5 0 1 0 15 0 a7.5 7.5 0 1 0 -15 0zM1437.82 193.81 a7.5 7.5 0 1 0 15 0 a7.5 7.5 0 1 0 -15 0zM1372.87 231.31 a7.5 7.5 0 1 0 15 0 a7.5 7.5 0 1 0 -15 0zM1372.87 306.31 a7.5 7.5 0 1 0 15 0 a7.5 7.5 0 1 0 -15 0zM1437.82 343.81 a7.5 7.5 0 1 0 15 0 a7.5 7.5 0 1 0 -15 0zM1437.82 418.81 a7.5 7.5 0 1 0 15 0 a7.5 7.5 0 1 0 -15 0zM1372.87 456.31 a7.5 7.5 0 1 0 15 0 a7.5 7.5 0 1 0 -15 0zM1372.87 756.31 a7.5 7.5 0 1 0 15 0 a7.5 7.5 0 1 0 -15 0zM1437.82 793.81 a7.5 7.5 0 1 0 15 0 a7.5 7.5 0 1 0 -15 0zM1437.82 868.81 a7.5 7.5 0 1 0 15 0 a7.5 7.5 0 1 0 -15 0zM1372.87 906.31 a7.5 7.5 0 1 0 15 0 a7.5 7.5 0 1 0 -15 0zM1307.91 868.81 a7.5 7.5 0 1 0 15 0 a7.5 7.5 0 1 0 -15 0zM1307.91 793.81 a7.5 7.5 0 1 0 15 0 a7.5 7.5 0 1 0 -15 0zM1372.87 981.31 a7.5 7.5 0 1 0 15 0 a7.5 7.5 0 1 0 -15 0zM1242.96 906.31 a7.5 7.5 0 1 0 15 0 a7.5 7.5 0 1 0 -15 0zM1502.78 456.31 a7.5 7.5 0 1 0 15 0 a7.5 7.5 0 1 0 -15 0zM1502.78 531.31 a7.5 7.5 0 1 0 15 0 a7.5 7.5 0 1 0 -15 0zM1437.82 568.81 a7.5 7.5 0 1 0 15 0 a7.5 7.5 0 1 0 -15 0zM1372.87 531.31 a7.5 7.5 0 1 0 15 0 a7.5 7.5 0 1 0 -15 0zM1502.78 756.31 a7.5 7.5 0 1 0 15 0 a7.5 7.5 0 1 0 -15 0zM1567.73 793.81 a7.5 7.5 0 1 0 15 0 a7.5 7.5 0 1 0 -15 0zM1567.73 868.81 a7.5 7.5 0 1 0 15 0 a7.5 7.5 0 1 0 -15 0zM1502.78 906.31 a7.5 7.5 0 1 0 15 0 a7.5 7.5 0 1 0 -15 0zM1502.78 981.31 a7.5 7.5 0 1 0 15 0 a7.5 7.5 0 1 0 -15 0zM1437.82 1018.81 a7.5 7.5 0 1 0 15 0 a7.5 7.5 0 1 0 -15 0zM1567.73 -31.19 a7.5 7.5 0 1 0 15 0 a7.5 7.5 0 1 0 -15 0zM1632.68 6.31 a7.5 7.5 0 1 0 15 0 a7.5 7.5 0 1 0 -15 0zM1632.68 81.31 a7.5 7.5 0 1 0 15 0 a7.5 7.5 0 1 0 -15 0zM1567.73 118.81 a7.5 7.5 0 1 0 15 0 a7.5 7.5 0 1 0 -15 0zM1502.78 81.31 a7.5 7.5 0 1 0 15 0 a7.5 7.5 0 1 0 -15 0zM1502.78 6.31 a7.5 7.5 0 1 0 15 0 a7.5 7.5 0 1 0 -15 0zM1567.73 193.81 a7.5 7.5 0 1 0 15 0 a7.5 7.5 0 1 0 -15 0zM1632.68 231.31 a7.5 7.5 0 1 0 15 0 a7.5 7.5 0 1 0 -15 0zM1632.68 306.31 a7.5 7.5 0 1 0 15 0 a7.5 7.5 0 1 0 -15 0zM1567.73 343.81 a7.5 7.5 0 1 0 15 0 a7.5 7.5 0 1 0 -15 0zM1502.78 306.31 a7.5 7.5 0 1 0 15 0 a7.5 7.5 0 1 0 -15 0zM1502.78 231.31 a7.5 7.5 0 1 0 15 0 a7.5 7.5 0 1 0 -15 0zM1632.68 756.31 a7.5 7.5 0 1 0 15 0 a7.5 7.5 0 1 0 -15 0zM1697.64 793.81 a7.5 7.5 0 1 0 15 0 a7.5 7.5 0 1 0 -15 0zM1697.64 868.81 a7.5 7.5 0 1 0 15 0 a7.5 7.5 0 1 0 -15 0zM1632.68 906.31 a7.5 7.5 0 1 0 15 0 a7.5 7.5 0 1 0 -15 0zM1697.64 -31.19 a7.5 7.5 0 1 0 15 0 a7.5 7.5 0 1 0 -15 0zM1762.59 6.31 a7.5 7.5 0 1 0 15 0 a7.5 7.5 0 1 0 -15 0zM1762.59 81.31 a7.5 7.5 0 1 0 15 0 a7.5 7.5 0 1 0 -15 0zM1697.64 118.81 a7.5 7.5 0 1 0 15 0 a7.5 7.5 0 1 0 -15 0zM1762.59 306.31 a7.5 7.5 0 1 0 15 0 a7.5 7.5 0 1 0 -15 0zM1827.54 343.81 a7.5 7.5 0 1 0 15 0 a7.5 7.5 0 1 0 -15 0zM1827.54 418.81 a7.5 7.5 0 1 0 15 0 a7.5 7.5 0 1 0 -15 0zM1762.59 456.31 a7.5 7.5 0 1 0 15 0 a7.5 7.5 0 1 0 -15 0zM1697.64 418.81 a7.5 7.5 0 1 0 15 0 a7.5 7.5 0 1 0 -15 0zM1697.64 343.81 a7.5 7.5 0 1 0 15 0 a7.5 7.5 0 1 0 -15 0zM1762.59 981.31 a7.5 7.5 0 1 0 15 0 a7.5 7.5 0 1 0 -15 0zM1827.54 1018.81 a7.5 7.5 0 1 0 15 0 a7.5 7.5 0 1 0 -15 0zM1827.54 1093.81 a7.5 7.5 0 1 0 15 0 a7.5 7.5 0 1 0 -15 0zM1762.59 1131.31 a7.5 7.5 0 1 0 15 0 a7.5 7.5 0 1 0 -15 0zM1697.64 1093.81 a7.5 7.5 0 1 0 15 0 a7.5 7.5 0 1 0 -15 0zM1697.64 1018.81 a7.5 7.5 0 1 0 15 0 a7.5 7.5 0 1 0 -15 0zM1892.5 306.31 a7.5 7.5 0 1 0 15 0 a7.5 7.5 0 1 0 -15 0zM1957.45 343.81 a7.5 7.5 0 1 0 15 0 a7.5 7.5 0 1 0 -15 0zM1957.45 418.81 a7.5 7.5 0 1 0 15 0 a7.5 7.5 0 1 0 -15 0zM1892.5 456.31 a7.5 7.5 0 1 0 15 0 a7.5 7.5 0 1 0 -15 0zM1892.5 756.31 a7.5 7.5 0 1 0 15 0 a7.5 7.5 0 1 0 -15 0zM1957.45 793.81 a7.5 7.5 0 1 0 15 0 a7.5 7.5 0 1 0 -15 0zM1957.45 868.81 a7.5 7.5 0 1 0 15 0 a7.5 7.5 0 1 0 -15 0zM1892.5 906.31 a7.5 7.5 0 1 0 15 0 a7.5 7.5 0 1 0 -15 0zM1827.54 868.81 a7.5 7.5 0 1 0 15 0 a7.5 7.5 0 1 0 -15 0zM1827.54 793.81 a7.5 7.5 0 1 0 15 0 a7.5 7.5 0 1 0 -15 0zM1892.5 981.31 a7.5 7.5 0 1 0 15 0 a7.5 7.5 0 1 0 -15 0zM1762.59 906.31 a7.5 7.5 0 1 0 15 0 a7.5 7.5 0 1 0 -15 0zM1892.5 1131.31 a7.5 7.5 0 1 0 15 0 a7.5 7.5 0 1 0 -15 0zM1892.5 1206.31 a7.5 7.5 0 1 0 15 0 a7.5 7.5 0 1 0 -15 0zM1827.54 1243.81 a7.5 7.5 0 1 0 15 0 a7.5 7.5 0 1 0 -15 0zM1762.59 1206.31 a7.5 7.5 0 1 0 15 0 a7.5 7.5 0 1 0 -15 0zM2022.41 81.31 a7.5 7.5 0 1 0 15 0 a7.5 7.5 0 1 0 -15 0zM2087.36 118.81 a7.5 7.5 0 1 0 15 0 a7.5 7.5 0 1 0 -15 0zM2087.36 193.81 a7.5 7.5 0 1 0 15 0 a7.5 7.5 0 1 0 -15 0zM2022.41 231.31 a7.5 7.5 0 1 0 15 0 a7.5 7.5 0 1 0 -15 0zM1957.45 193.81 a7.5 7.5 0 1 0 15 0 a7.5 7.5 0 1 0 -15 0zM1957.45 118.81 a7.5 7.5 0 1 0 15 0 a7.5 7.5 0 1 0 -15 0zM2022.41 306.31 a7.5 7.5 0 1 0 15 0 a7.5 7.5 0 1 0 -15 0zM1892.5 231.31 a7.5 7.5 0 1 0 15 0 a7.5 7.5 0 1 0 -15 0zM2022.41 456.31 a7.5 7.5 0 1 0 15 0 a7.5 7.5 0 1 0 -15 0zM2022.41 531.31 a7.5 7.5 0 1 0 15 0 a7.5 7.5 0 1 0 -15 0zM1957.45 568.81 a7.5 7.5 0 1 0 15 0 a7.5 7.5 0 1 0 -15 0zM1892.5 531.31 a7.5 7.5 0 1 0 15 0 a7.5 7.5 0 1 0 -15 0zM2087.36 568.81 a7.5 7.5 0 1 0 15 0 a7.5 7.5 0 1 0 -15 0zM2087.36 643.81 a7.5 7.5 0 1 0 15 0 a7.5 7.5 0 1 0 -15 0zM2022.41 681.31 a7.5 7.5 0 1 0 15 0 a7.5 7.5 0 1 0 -15 0zM1957.45 643.81 a7.5 7.5 0 1 0 15 0 a7.5 7.5 0 1 0 -15 0zM2022.41 756.31 a7.5 7.5 0 1 0 15 0 a7.5 7.5 0 1 0 -15 0zM1892.5 681.31 a7.5 7.5 0 1 0 15 0 a7.5 7.5 0 1 0 -15 0zM2022.41 906.31 a7.5 7.5 0 1 0 15 0 a7.5 7.5 0 1 0 -15 0zM2022.41 981.31 a7.5 7.5 0 1 0 15 0 a7.5 7.5 0 1 0 -15 0zM1957.45 1018.81 a7.5 7.5 0 1 0 15 0 a7.5 7.5 0 1 0 -15 0zM1957.45 1093.81 a7.5 7.5 0 1 0 15 0 a7.5 7.5 0 1 0 -15 0zM2022.41 1131.31 a7.5 7.5 0 1 0 15 0 a7.5 7.5 0 1 0 -15 0zM2022.41 1206.31 a7.5 7.5 0 1 0 15 0 a7.5 7.5 0 1 0 -15 0zM1957.45 1243.81 a7.5 7.5 0 1 0 15 0 a7.5 7.5 0 1 0 -15 0zM2152.31 81.31 a7.5 7.5 0 1 0 15 0 a7.5 7.5 0 1 0 -15 0zM2217.27 118.81 a7.5 7.5 0 1 0 15 0 a7.5 7.5 0 1 0 -15 0zM2217.27 193.81 a7.5 7.5 0 1 0 15 0 a7.5 7.5 0 1 0 -15 0zM2152.31 231.31 a7.5 7.5 0 1 0 15 0 a7.5 7.5 0 1 0 -15 0zM2152.31 306.31 a7.5 7.5 0 1 0 15 0 a7.5 7.5 0 1 0 -15 0zM2087.36 343.81 a7.5 7.5 0 1 0 15 0 a7.5 7.5 0 1 0 -15 0zM2087.36 418.81 a7.5 7.5 0 1 0 15 0 a7.5 7.5 0 1 0 -15 0zM2152.31 456.31 a7.5 7.5 0 1 0 15 0 a7.5 7.5 0 1 0 -15 0zM2152.31 531.31 a7.5 7.5 0 1 0 15 0 a7.5 7.5 0 1 0 -15 0zM2152.31 681.31 a7.5 7.5 0 1 0 15 0 a7.5 7.5 0 1 0 -15 0zM2152.31 756.31 a7.5 7.5 0 1 0 15 0 a7.5 7.5 0 1 0 -15 0zM2087.36 793.81 a7.5 7.5 0 1 0 15 0 a7.5 7.5 0 1 0 -15 0zM2217.27 793.81 a7.5 7.5 0 1 0 15 0 a7.5 7.5 0 1 0 -15 0zM2217.27 868.81 a7.5 7.5 0 1 0 15 0 a7.5 7.5 0 1 0 -15 0zM2152.31 906.31 a7.5 7.5 0 1 0 15 0 a7.5 7.5 0 1 0 -15 0zM2087.36 868.81 a7.5 7.5 0 1 0 15 0 a7.5 7.5 0 1 0 -15 0zM2152.31 981.31 a7.5 7.5 0 1 0 15 0 a7.5 7.5 0 1 0 -15 0zM2087.36 1018.81 a7.5 7.5 0 1 0 15 0 a7.5 7.5 0 1 0 -15 0zM2087.36 1093.81 a7.5 7.5 0 1 0 15 0 a7.5 7.5 0 1 0 -15 0zM2152.31 1131.31 a7.5 7.5 0 1 0 15 0 a7.5 7.5 0 1 0 -15 0zM2152.31 1206.31 a7.5 7.5 0 1 0 15 0 a7.5 7.5 0 1 0 -15 0zM2087.36 1243.81 a7.5 7.5 0 1 0 15 0 a7.5 7.5 0 1 0 -15 0z" fill="#03305d"></path><path d="M127.82 66.43L189.31 101.93L189.31 172.93L127.82 208.43L66.33 172.93L66.33 101.93zM127.82 279.43L189.31 314.93L189.31 385.93L127.82 421.43L66.33 385.93L66.33 314.93zM66.33 385.93L127.82 421.43L127.82 492.43L66.33 527.93L4.84 492.43L4.84 421.43zM127.82 492.43L189.31 527.93L189.31 598.93L127.82 634.43L66.33 598.93L66.33 527.93zM127.82 705.43L189.31 740.93L189.31 811.93L127.82 847.43L66.33 811.93L66.33 740.93zM127.82 918.43L189.31 953.93L189.31 1024.93L127.82 1060.43L66.33 1024.93L66.33 953.93zM66.33 1024.93L127.82 1060.43L127.82 1131.43L66.33 1166.93L4.84 1131.43L4.84 1060.43zM189.31 -40.07L250.8 -4.57L250.8 66.43L189.31 101.93L127.82 66.43L127.82 -4.57zM250.8 279.43L312.29 314.93L312.29 385.93L250.8 421.43L189.31 385.93L189.31 314.93zM189.31 598.93L250.8 634.43L250.8 705.43L189.31 740.93L127.82 705.43L127.82 634.43zM250.8 705.43L312.29 740.93L312.29 811.93L250.8 847.43L189.31 811.93L189.31 740.93zM312.29 -40.07L373.78 -4.57L373.78 66.43L312.29 101.93L250.8 66.43L250.8 -4.57zM312.29 172.93L373.78 208.43L373.78 279.43L312.29 314.93L250.8 279.43L250.8 208.43zM373.78 279.43L435.27 314.93L435.27 385.93L373.78 421.43L312.29 385.93L312.29 314.93zM312.29 385.93L373.78 421.43L373.78 492.43L312.29 527.93L250.8 492.43L250.8 421.43zM312.29 598.93L373.78 634.43L373.78 705.43L312.29 740.93L250.8 705.43L250.8 634.43zM373.78 705.43L435.27 740.93L435.27 811.93L373.78 847.43L312.29 811.93L312.29 740.93zM312.29 811.93L373.78 847.43L373.78 918.43L312.29 953.93L250.8 918.43L250.8 847.43zM312.29 1024.93L373.78 1060.43L373.78 1131.43L312.29 1166.93L250.8 1131.43L250.8 1060.43zM435.27 -40.07L496.76 -4.57L496.76 66.43L435.27 101.93L373.78 66.43L373.78 -4.57zM435.27 172.93L496.76 208.43L496.76 279.43L435.27 314.93L373.78 279.43L373.78 208.43zM496.76 492.43L558.25 527.93L558.25 598.93L496.76 634.43L435.27 598.93L435.27 527.93zM496.76 705.43L558.25 740.93L558.25 811.93L496.76 847.43L435.27 811.93L435.27 740.93zM435.27 811.93L496.76 847.43L496.76 918.43L435.27 953.93L373.78 918.43L373.78 847.43zM435.27 1024.93L496.76 1060.43L496.76 1131.43L435.27 1166.93L373.78 1131.43L373.78 1060.43zM619.74 66.43L681.23 101.93L681.23 172.93L619.74 208.43L558.25 172.93L558.25 101.93zM619.74 279.43L681.23 314.93L681.23 385.93L619.74 421.43L558.25 385.93L558.25 314.93zM619.74 492.43L681.23 527.93L681.23 598.93L619.74 634.43L558.25 598.93L558.25 527.93zM619.74 705.43L681.23 740.93L681.23 811.93L619.74 847.43L558.25 811.93L558.25 740.93zM558.25 811.93L619.74 847.43L619.74 918.43L558.25 953.93L496.76 918.43L496.76 847.43zM558.25 1024.93L619.74 1060.43L619.74 1131.43L558.25 1166.93L496.76 1131.43L496.76 1060.43zM681.23 -40.07L742.72 -4.57L742.72 66.43L681.23 101.93L619.74 66.43L619.74 -4.57zM681.23 1024.93L742.72 1060.43L742.72 1131.43L681.23 1166.93L619.74 1131.43L619.74 1060.43zM804.2 172.93L865.69 208.43L865.69 279.43L804.2 314.93L742.72 279.43L742.72 208.43zM865.69 279.43L927.18 314.93L927.18 385.93L865.69 421.43L804.2 385.93L804.2 314.93zM804.2 385.93L865.69 421.43L865.69 492.43L804.2 527.93L742.72 492.43L742.72 421.43zM865.69 492.43L927.18 527.93L927.18 598.93L865.69 634.43L804.2 598.93L804.2 527.93zM865.69 705.43L927.18 740.93L927.18 811.93L865.69 847.43L804.2 811.93L804.2 740.93zM865.69 918.43L927.18 953.93L927.18 1024.93L865.69 1060.43L804.2 1024.93L804.2 953.93zM804.2 1024.93L865.69 1060.43L865.69 1131.43L804.2 1166.93L742.72 1131.43L742.72 1060.43zM927.18 -40.07L988.67 -4.57L988.67 66.43L927.18 101.93L865.69 66.43L865.69 -4.57zM927.18 1024.93L988.67 1060.43L988.67 1131.43L927.18 1166.93L865.69 1131.43L865.69 1060.43zM1050.16 172.93L1111.65 208.43L1111.65 279.43L1050.16 314.93L988.67 279.43L988.67 208.43zM1050.16 385.93L1111.65 421.43L1111.65 492.43L1050.16 527.93L988.67 492.43L988.67 421.43zM1111.65 705.43L1173.14 740.93L1173.14 811.93L1111.65 847.43L1050.16 811.93L1050.16 740.93zM1050.16 811.93L1111.65 847.43L1111.65 918.43L1050.16 953.93L988.67 918.43L988.67 847.43zM1173.14 172.93L1234.63 208.43L1234.63 279.43L1173.14 314.93L1111.65 279.43L1111.65 208.43zM1234.63 279.43L1296.12 314.93L1296.12 385.93L1234.63 421.43L1173.14 385.93L1173.14 314.93zM1234.63 492.43L1296.12 527.93L1296.12 598.93L1234.63 634.43L1173.14 598.93L1173.14 527.93zM1173.14 598.93L1234.63 634.43L1234.63 705.43L1173.14 740.93L1111.65 705.43L1111.65 634.43zM1234.63 705.43L1296.12 740.93L1296.12 811.93L1234.63 847.43L1173.14 811.93L1173.14 740.93zM1173.14 1024.93L1234.63 1060.43L1234.63 1131.43L1173.14 1166.93L1111.65 1131.43L1111.65 1060.43zM1296.12 -40.07L1357.61 -4.57L1357.61 66.43L1296.12 101.93L1234.63 66.43L1234.63 -4.57zM1296.12 172.93L1357.61 208.43L1357.61 279.43L1296.12 314.93L1234.63 279.43L1234.63 208.43zM1357.61 492.43L1419.1 527.93L1419.1 598.93L1357.61 634.43L1296.12 598.93L1296.12 527.93zM1357.61 918.43L1419.1 953.93L1419.1 1024.93L1357.61 1060.43L1296.12 1024.93L1296.12 953.93zM1296.12 1024.93L1357.61 1060.43L1357.61 1131.43L1296.12 1166.93L1234.63 1131.43L1234.63 1060.43zM1419.1 385.93L1480.59 421.43L1480.59 492.43L1419.1 527.93L1357.61 492.43L1357.61 421.43zM1419.1 598.93L1480.59 634.43L1480.59 705.43L1419.1 740.93L1357.61 705.43L1357.61 634.43zM1419.1 811.93L1480.59 847.43L1480.59 918.43L1419.1 953.93L1357.61 918.43L1357.61 847.43zM1480.59 918.43L1542.08 953.93L1542.08 1024.93L1480.59 1060.43L1419.1 1024.93L1419.1 953.93zM1419.1 1024.93L1480.59 1060.43L1480.59 1131.43L1419.1 1166.93L1357.61 1131.43L1357.61 1060.43zM1603.57 492.43L1665.06 527.93L1665.06 598.93L1603.57 634.43L1542.08 598.93L1542.08 527.93zM1542.08 811.93L1603.57 847.43L1603.57 918.43L1542.08 953.93L1480.59 918.43L1480.59 847.43zM1542.08 1024.93L1603.57 1060.43L1603.57 1131.43L1542.08 1166.93L1480.59 1131.43L1480.59 1060.43zM1665.06 -40.07L1726.55 -4.57L1726.55 66.43L1665.06 101.93L1603.57 66.43L1603.57 -4.57zM1726.55 66.43L1788.04 101.93L1788.04 172.93L1726.55 208.43L1665.06 172.93L1665.06 101.93zM1665.06 172.93L1726.55 208.43L1726.55 279.43L1665.06 314.93L1603.57 279.43L1603.57 208.43zM1726.55 279.43L1788.04 314.93L1788.04 385.93L1726.55 421.43L1665.06 385.93L1665.06 314.93zM1726.55 492.43L1788.04 527.93L1788.04 598.93L1726.55 634.43L1665.06 598.93L1665.06 527.93zM1665.06 811.93L1726.55 847.43L1726.55 918.43L1665.06 953.93L1603.57 918.43L1603.57 847.43zM1788.04 385.93L1849.53 421.43L1849.53 492.43L1788.04 527.93L1726.55 492.43L1726.55 421.43zM1849.53 492.43L1911.02 527.93L1911.02 598.93L1849.53 634.43L1788.04 598.93L1788.04 527.93zM1788.04 1024.93L1849.53 1060.43L1849.53 1131.43L1788.04 1166.93L1726.55 1131.43L1726.55 1060.43zM1911.02 -40.07L1972.51 -4.57L1972.51 66.43L1911.02 101.93L1849.53 66.43L1849.53 -4.57zM1972.51 66.43L2034 101.93L2034 172.93L1972.51 208.43L1911.02 172.93L1911.02 101.93zM1911.02 385.93L1972.51 421.43L1972.51 492.43L1911.02 527.93L1849.53 492.43L1849.53 421.43zM1972.51 492.43L2034 527.93L2034 598.93L1972.51 634.43L1911.02 598.93L1911.02 527.93zM1972.51 705.43L2034 740.93L2034 811.93L1972.51 847.43L1911.02 811.93L1911.02 740.93zM1972.51 918.43L2034 953.93L2034 1024.93L1972.51 1060.43L1911.02 1024.93L1911.02 953.93zM2034 172.93L2095.49 208.43L2095.49 279.43L2034 314.93L1972.51 279.43L1972.51 208.43zM2095.49 279.43L2156.97 314.93L2156.97 385.93L2095.49 421.43L2034 385.93L2034 314.93zM2034 385.93L2095.49 421.43L2095.49 492.43L2034 527.93L1972.51 492.43L1972.51 421.43zM2095.49 492.43L2156.97 527.93L2156.97 598.93L2095.49 634.43L2034 598.93L2034 527.93zM2095.49 705.43L2156.97 740.93L2156.97 811.93L2095.49 847.43L2034 811.93L2034 740.93zM2034 1024.93L2095.49 1060.43L2095.49 1131.43L2034 1166.93L1972.51 1131.43L1972.51 1060.43zM2156.97 -40.07L2218.46 -4.57L2218.46 66.43L2156.97 101.93L2095.49 66.43L2095.49 -4.57zM2218.46 66.43L2279.95 101.93L2279.95 172.93L2218.46 208.43L2156.97 172.93L2156.97 101.93zM2218.46 279.43L2279.95 314.93L2279.95 385.93L2218.46 421.43L2156.97 385.93L2156.97 314.93zM2156.97 385.93L2218.46 421.43L2218.46 492.43L2156.97 527.93L2095.49 492.43L2095.49 421.43zM2218.46 492.43L2279.95 527.93L2279.95 598.93L2218.46 634.43L2156.97 598.93L2156.97 527.93zM2156.97 811.93L2218.46 847.43L2218.46 918.43L2156.97 953.93L2095.49 918.43L2095.49 847.43z" stroke="rgba(6, 80, 156, 0.93)" stroke-width="2"></path></g><defs><mask id="SvgjsMask1189"><rect width="2160" height="1080" fill="#ffffff"></rect></mask></defs></svg>