<svg xmlns="http://www.w3.org/2000/svg" version="1.1" xmlns:xlink="http://www.w3.org/1999/xlink" xmlns:svgjs="http://svgjs.dev/svgjs" width="1920" height="1080" preserveAspectRatio="none" viewBox="0 0 1920 1080"><g mask="url(&quot;#SvgjsMask1011&quot;)" fill="none"><rect width="1920" height="1080" x="0" y="0" fill="#0e2a47"></rect><path d="M0,897.213C164.739,909.821,302.606,770.129,420.62,654.497C523.134,554.051,558.32,412.547,624.581,285.236C695.204,149.544,810.669,34.179,822.84,-118.306C836.396,-288.142,792.923,-462.872,695.446,-602.608C592.606,-750.033,446.948,-894.447,268.199,-913.403C92.316,-932.055,-39.738,-761.167,-204.98,-698.097C-352.734,-641.701,-531.645,-668.187,-649.768,-563.027C-772.915,-453.394,-823.412,-284.892,-851.594,-122.441C-880.367,43.413,-904.225,230.058,-811.757,370.717C-721.184,508.493,-519.517,503.413,-381.184,593.134C-241.999,683.408,-165.413,884.554,0,897.213" fill="#091b2e"></path><path d="M1920 1737.337C2061.876 1730.999 2207.276 1786.4180000000001 2337.35 1729.4099999999999 2476.413 1668.462 2570.985 1542.239 2654.487 1415.429 2749.91 1270.5149999999999 2888.832 1115.647 2853.3379999999997 945.806 2817.694 775.251 2628.018 688.4390000000001 2482.5209999999997 592.573 2367.919 517.063 2233.924 497.41200000000003 2104.314 452.283 1966.456 404.28200000000004 1841.45 301.46000000000004 1696.519 318.89200000000005 1543.635 337.28 1414.199 438.361 1306.339 548.26 1193.617 663.113 1102.897 800.2909999999999 1069.542 957.723 1034.868 1121.377 1040.5610000000001 1297.857 1115.874 1447.232 1189.949 1594.1509999999998 1323.204 1711.9650000000001 1477.9769999999999 1767.8020000000001 1619.775 1818.9589999999998 1769.406 1744.065 1920 1737.337" fill="#133960"></path></g><defs><mask id="SvgjsMask1011"><rect width="1920" height="1080" fill="#ffffff"></rect></mask></defs></svg>